# xmcd CD database file
#
# Track frame offsets:
#	150
#	22036
#	49058
#	75497
#	102994
#	133194
#	165106
#	199928
#	226903
#	254032
#	276187
#	300517
#	329633
#
# Disc length: 4714 seconds
#
# Revision: 6
# Processed by: cddbd v1.5.2PL0 Copyright (c) Steve Scherf et al.
# Submitted via: CDex 1.70beta2
#
DISCID=b112680d
DTITLE=Leonard Cohen - The Essential Leonard Cohen [CD2]
DYEAR=2002
DGENRE=Folk
TTITLE0=Ain't No Cure For Love
TTITLE1=Take This Waltz
TTITLE2=First We Take Manhattan
TTITLE3=Dance Me to the End of Love
TTITLE4=The Future
TTITLE5=Democracy
TTITLE6=Waiting for the Miracle
TTITLE7=Closing Time
TTITLE8=Anthem
TTITLE9=In My Secret Life
TTITLE10=Alexandra Leaving
TTITLE11=A Thousand Kisses Deep
TTITLE12=Love Itself
EXTD=YEAR: 2002
EXTT0=
EXTT1=
EXTT2=
EXTT3=
EXTT4=
EXTT5=
EXTT6=
EXTT7=
EXTT8=
EXTT9=
EXTT10=
EXTT11=
EXTT12=
PLAYORDER=
